<svg width="16" height="16" viewBox="0 0 16 16" fill="none" xmlns="http://www.w3.org/2000/svg">
<g clip-path="url(#clip0_2222_977)">
<path d="M11.9593 11.9593C10.8197 12.828 9.43209 13.3093 7.99935 13.3327C3.33268 13.3327 0.666016 7.99935 0.666016 7.99935C1.49528 6.45395 2.64544 5.10375 4.03935 4.03935M6.59935 2.82602C7.05824 2.7186 7.52806 2.66491 7.99935 2.66602C12.666 2.66602 15.3327 7.99935 15.3327 7.99935C14.928 8.75642 14.4454 9.46917 13.8927 10.126M9.41268 9.41268C9.22958 9.60918 9.00878 9.76679 8.76345 9.8761C8.51812 9.98541 8.25328 10.0442 7.98474 10.0489C7.7162 10.0537 7.44946 10.0043 7.20042 9.90368C6.95139 9.80309 6.72516 9.65337 6.53525 9.46345C6.34533 9.27353 6.19561 9.04731 6.09502 8.79828C5.99443 8.54924 5.94503 8.2825 5.94977 8.01396C5.95451 7.74541 6.01329 7.48058 6.1226 7.23525C6.23191 6.98992 6.38952 6.76911 6.58602 6.58602M0.666016 0.666016L15.3327 15.3327" stroke="#989898" stroke-width="1.6" stroke-linecap="round" stroke-linejoin="round"/>
</g>
<defs>
<clipPath id="clip0_2222_977">
<rect width="16" height="16" fill="white"/>
</clipPath>
</defs>
</svg>
