<svg width="48" height="48" viewBox="0 0 48 48" fill="none" xmlns="http://www.w3.org/2000/svg">
<g clip-path="url(#clip0_2837_550)">
<rect width="48" height="48" rx="24" fill="white"/>
<path d="M16.0842 21.2798C16.0842 22.0582 16.121 22.5944 16.1944 22.8881C16.3192 23.3728 16.5763 23.6152 16.9655 23.6152C17.3107 23.6152 17.5457 23.4022 17.6706 22.9763C17.766 22.6458 17.8138 22.0803 17.8138 21.2798C17.8138 20.4131 17.7514 19.8073 17.6265 19.4621C17.509 19.1096 17.285 18.9333 16.9545 18.9333C16.5873 18.9333 16.3413 19.1646 16.2164 19.6273C16.1283 19.9578 16.0842 20.5086 16.0842 21.2798ZM14.4648 21.2798C14.4648 20.5453 14.6925 19.9137 15.1479 19.385C15.6105 18.8562 16.2128 18.5918 16.9545 18.5918C17.6742 18.5918 18.2654 18.8488 18.7281 19.3629C19.1982 19.8697 19.4332 20.5086 19.4332 21.2798C19.4332 22.0289 19.2018 22.6641 18.7391 23.1856C18.2838 23.6997 17.6889 23.9567 16.9545 23.9567C16.2054 23.9567 15.6032 23.6997 15.1479 23.1856C14.6925 22.6641 14.4648 22.0289 14.4648 21.2798Z" fill="#2B2B2B"/>
<path d="M15.3437 18.7241V18.9885C15.2115 19.0179 15.116 19.0546 15.0573 19.0987C14.9691 19.1721 14.881 19.319 14.7929 19.5393L13.0854 23.9568H12.832L11.7304 20.6189H11.6753L10.3313 23.9568H10.0669L8.43652 19.8368C8.28964 19.4622 8.18315 19.2345 8.11705 19.1538C8.0583 19.073 7.95548 19.0179 7.80859 18.9885V18.7241H10.2542V18.9885C10.1293 19.0032 10.0265 19.0326 9.94574 19.0766C9.8723 19.1134 9.83558 19.1941 9.83558 19.319C9.83558 19.3998 9.88332 19.5687 9.97879 19.8257C10.2726 20.5748 10.5333 21.2542 10.7609 21.8638L11.5101 19.98L11.2787 19.2529C11.242 19.1648 11.2016 19.106 11.1575 19.0766C11.1135 19.0399 10.9923 19.0105 10.794 18.9885V18.7241H13.3718V18.9885C13.1955 18.9885 13.0633 19.0069 12.9752 19.0436C12.8871 19.0803 12.843 19.1538 12.843 19.2639C12.843 19.3374 12.8944 19.5614 12.9972 19.9359C13.3277 21.133 13.4966 21.7499 13.504 21.7866C13.7023 21.2652 13.8381 20.9127 13.9116 20.7291C14.2274 19.9286 14.3853 19.4842 14.3853 19.3961C14.3853 19.2345 14.3449 19.1317 14.2641 19.0877C14.1833 19.0436 14.0475 19.0105 13.8565 18.9885V18.7241H15.3437Z" fill="#2B2B2B"/>
<path d="M7.88795 23.527V23.8024H3.95515V23.527C4.38846 23.527 4.66754 23.4756 4.79239 23.3728C4.94662 23.248 5.02373 22.9615 5.02373 22.5135V16.708C4.47292 16.708 4.05063 16.7961 3.75686 16.9724C3.27949 17.2588 2.99307 17.7913 2.8976 18.5697H2.57812L2.61117 16.3555H9.22092L9.24295 18.5697H8.92348C8.82801 17.7986 8.54526 17.2698 8.07523 16.9834C7.77412 16.7998 7.35183 16.708 6.80836 16.708V22.5135C6.80836 22.9615 6.88547 23.248 7.0397 23.3728C7.16455 23.4756 7.4473 23.527 7.88795 23.527Z" fill="#2B2B2B"/>
<path d="M42.5313 26.2599H44.0074C44.0074 25.9734 44.0001 25.7384 43.9854 25.5548C43.9781 25.3639 43.9524 25.1876 43.9083 25.026C43.8642 24.8645 43.8055 24.7433 43.732 24.6625C43.6292 24.5523 43.4897 24.4973 43.3134 24.4973C43.0711 24.4973 42.8911 24.6001 42.7736 24.8057C42.612 25.0848 42.5313 25.5695 42.5313 26.2599ZM45.1531 27.9894L45.4175 28.1436C45.087 28.6504 44.7529 29.0066 44.415 29.2122C44.0845 29.4179 43.6916 29.5207 43.2363 29.5207C42.6267 29.5207 42.1163 29.3077 41.705 28.8817C41.235 28.3897 41 27.703 41 26.8217C41 26.0285 41.2167 25.3859 41.65 24.8939C42.0833 24.4018 42.6231 24.1558 43.2693 24.1558C43.9156 24.1558 44.415 24.3651 44.7676 24.7837C45.1641 25.2537 45.3624 25.8816 45.3624 26.6675H42.5863C42.5863 27.233 42.6745 27.692 42.8507 28.0445C43.0784 28.4998 43.4309 28.7275 43.9083 28.7275C44.1286 28.7275 44.3306 28.6761 44.5142 28.5733C44.7051 28.4631 44.9181 28.2685 45.1531 27.9894Z" fill="#2B2B2B"/>
<path d="M40.2702 29.1021V29.3664H37.3398V29.1021C37.5602 29.058 37.7034 29.0103 37.7695 28.9588C37.8796 28.8634 37.9347 28.6908 37.9347 28.4411V25.2023C37.9347 24.9453 37.8796 24.7727 37.7695 24.6845C37.696 24.6258 37.5528 24.5817 37.3398 24.5523V24.288H39.4219V25.1582C39.6349 24.8718 39.8185 24.6625 39.9727 24.5303C40.2665 24.2806 40.5713 24.1558 40.8871 24.1558C41.2176 24.1558 41.4636 24.2659 41.6252 24.4862C41.7427 24.6405 41.8014 24.8167 41.8014 25.015C41.8014 25.1986 41.7537 25.3565 41.6582 25.4887C41.5334 25.665 41.3461 25.7531 41.0964 25.7531C40.8614 25.7531 40.6374 25.6062 40.4244 25.3125C40.3216 25.1729 40.2188 25.1032 40.1159 25.1032C39.9323 25.1032 39.7708 25.2207 39.6312 25.4557C39.5211 25.6466 39.466 25.878 39.466 26.1497V28.2318C39.466 28.5769 39.5174 28.8083 39.6202 28.9258C39.723 29.0433 39.9397 29.1021 40.2702 29.1021Z" fill="#2B2B2B"/>
<path d="M34.9219 26.2599H36.3981C36.3981 25.9734 36.3907 25.7384 36.376 25.5548C36.3687 25.3639 36.343 25.1876 36.2989 25.026C36.2548 24.8645 36.1961 24.7433 36.1227 24.6625C36.0198 24.5523 35.8803 24.4973 35.704 24.4973C35.4617 24.4973 35.2817 24.6001 35.1642 24.8057C35.0027 25.0848 34.9219 25.5695 34.9219 26.2599ZM37.5437 27.9894L37.8081 28.1436C37.4777 28.6504 37.1435 29.0066 36.8057 29.2122C36.4752 29.4179 36.0823 29.5207 35.6269 29.5207C35.0174 29.5207 34.5069 29.3077 34.0957 28.8817C33.6256 28.3897 33.3906 27.703 33.3906 26.8217C33.3906 26.0285 33.6073 25.3859 34.0406 24.8939C34.4739 24.4018 35.0137 24.1558 35.66 24.1558C36.3063 24.1558 36.8057 24.3651 37.1582 24.7837C37.5548 25.2537 37.7531 25.8816 37.7531 26.6675H34.977C34.977 27.233 35.0651 27.692 35.2414 28.0445C35.469 28.4998 35.8215 28.7275 36.2989 28.7275C36.5192 28.7275 36.7212 28.6761 36.9048 28.5733C37.0958 28.4631 37.3087 28.2685 37.5437 27.9894Z" fill="#2B2B2B"/>
<path d="M33.8666 29.102V29.3664H31.2778V29.102C31.6229 29.0726 31.7955 28.8633 31.7955 28.4741V25.8082C31.7955 25.5511 31.7698 25.3602 31.7184 25.2353C31.6229 25.0077 31.4467 24.8938 31.1896 24.8938C30.9987 24.8938 30.7967 24.9819 30.5837 25.1582C30.3781 25.3345 30.2753 25.4593 30.2753 25.5328V28.4741C30.2753 28.643 30.301 28.7715 30.3524 28.8597C30.4332 28.9992 30.5874 29.08 30.8151 29.102V29.3664H28.1602V29.102C28.3878 29.058 28.5347 29.0065 28.6008 28.9478C28.6963 28.8597 28.744 28.6907 28.744 28.441V22.8228C28.744 22.5804 28.7073 22.4262 28.6339 22.3601C28.5604 22.294 28.4025 22.2352 28.1602 22.1838V21.9194H30.2753V25.015C30.5397 24.7065 30.7967 24.4862 31.0464 24.354C31.2961 24.2218 31.5642 24.1557 31.8506 24.1557C32.2251 24.1557 32.5446 24.2622 32.809 24.4752C33.1542 24.7543 33.3268 25.1656 33.3268 25.709V28.441C33.3268 28.61 33.3488 28.7422 33.3929 28.8376C33.4737 29.0139 33.6316 29.102 33.8666 29.102Z" fill="#2B2B2B"/>
<path d="M25.2107 25.5548V28.2318C25.2768 28.3787 25.3392 28.4888 25.3979 28.5623C25.5815 28.7899 25.8019 28.9038 26.0589 28.9038C26.4482 28.9038 26.7162 28.6504 26.8631 28.1436C26.9512 27.8352 26.9953 27.4239 26.9953 26.9098C26.9953 26.2635 26.9549 25.7935 26.8741 25.4997C26.7419 25.0224 26.4959 24.7837 26.136 24.7837C25.9157 24.7837 25.6991 24.8902 25.4861 25.1032C25.3025 25.2868 25.2107 25.4373 25.2107 25.5548ZM26.0699 31.3934V31.6248H23.0625V31.3604C23.3122 31.3237 23.4774 31.2649 23.5582 31.1841C23.639 31.1033 23.6794 30.9491 23.6794 30.7214V25.2023C23.6794 24.982 23.6427 24.8278 23.5692 24.7396C23.4958 24.6441 23.3342 24.5817 23.0845 24.5523V24.288H25.1886V25.015C25.3355 24.7653 25.4861 24.5781 25.6403 24.4532C25.8973 24.2549 26.2205 24.1558 26.6097 24.1558C27.1385 24.1558 27.5902 24.3541 27.9647 24.7506C28.4054 25.2207 28.6257 25.8706 28.6257 26.7005C28.6257 27.5745 28.4201 28.2611 28.0088 28.7606C27.6049 29.26 27.1055 29.5097 26.5106 29.5097C26.2976 29.5097 26.0993 29.4693 25.9157 29.3885C25.7394 29.315 25.5044 29.1351 25.2107 28.8487V30.402C25.2107 30.8059 25.2878 31.0776 25.442 31.2172C25.5669 31.3347 25.7762 31.3934 26.0699 31.3934Z" fill="#2B2B2B"/>
<path d="M23.0557 24.1332H22.7472C22.615 23.6338 22.3947 23.2005 22.0862 22.8333C21.6676 22.3412 21.1682 22.0952 20.588 22.0952C20.2722 22.0952 19.9968 22.187 19.7618 22.3706C19.5268 22.5469 19.4093 22.8039 19.4093 23.1417C19.4093 23.4355 19.4827 23.6705 19.6296 23.8468C19.7838 24.0157 20.0886 24.214 20.544 24.4417L22.1634 25.2458C22.4424 25.3854 22.6885 25.5947 22.9014 25.8738C23.2172 26.285 23.3751 26.7514 23.3751 27.2728C23.3751 27.853 23.1732 28.3561 22.7692 28.7821C22.2698 29.3108 21.5611 29.5752 20.6431 29.5752C20.2906 29.5752 19.9638 29.5348 19.6627 29.454C19.3689 29.3733 19.0678 29.2888 18.7593 29.2007C18.6565 29.2007 18.5831 29.2374 18.539 29.3108C18.4949 29.3769 18.4582 29.4651 18.4288 29.5752H18.1094V26.8542H18.4288C18.561 27.5152 18.7887 28.0476 19.1119 28.4516C19.5158 28.9583 20.0409 29.2117 20.6872 29.2117C21.1278 29.2117 21.4657 29.0979 21.7007 28.8702C21.943 28.6352 22.0642 28.3377 22.0642 27.9779C22.0642 27.6474 21.9504 27.3756 21.7227 27.1627C21.5685 27.0231 21.271 26.8469 20.8304 26.6339L20.0923 26.2814C19.2771 25.8921 18.73 25.4515 18.4509 24.9594C18.2893 24.673 18.2085 24.3278 18.2085 23.9239C18.2085 23.2262 18.4546 22.6754 18.9466 22.2715C19.3726 21.9263 19.9381 21.7537 20.6431 21.7537C20.9883 21.7537 21.3481 21.8161 21.7227 21.941C22.1046 22.0585 22.3176 22.1172 22.3616 22.1172C22.4938 22.1172 22.5893 22.0621 22.6481 21.952C22.6774 21.9006 22.7031 21.8308 22.7252 21.7427H23.0557V24.1332Z" fill="#2B2B2B"/>
</g>
<defs>
<clipPath id="clip0_2837_550">
<rect width="48" height="48" fill="white"/>
</clipPath>
</defs>
</svg>
