<svg width="216" height="216" viewBox="0 0 216 216" fill="none" xmlns="http://www.w3.org/2000/svg">
<path d="M105.138 152.221C150.587 152.221 187.431 124.917 187.431 91.2365C187.431 57.5557 150.587 30.252 105.138 30.252C59.6893 30.252 22.8457 57.5557 22.8457 91.2365C22.8457 124.917 59.6893 152.221 105.138 152.221Z" fill="#FFDE00"/>
<path d="M108.008 11C57.1946 11 16 49.1033 16 96.1079C16 130.816 30.532 147.391 50.4461 162.502L50.5427 162.544V203.283C50.5427 205.201 52.737 206.305 54.2827 205.16L89.1704 179.242L89.9156 179.573C95.7671 180.65 101.812 181.216 107.994 181.216C158.808 181.216 200.002 143.112 200.002 96.1079C200.002 49.1033 158.822 11 108.008 11ZM77.1639 117.664C86.1895 117.664 93.904 112.268 96.2225 103.919H109.568C106.311 119.969 93.8074 130.499 77.1777 130.499C57.8432 130.499 42.5108 116.077 42.5108 96.0113C42.5108 75.9453 57.8432 61.5237 77.1777 61.5237C93.9868 61.5237 106.559 72.2605 109.664 88.5866H96.3605C94.3318 79.7128 86.3551 74.1788 77.1777 74.1788C64.1777 74.1788 55.5247 83.4528 55.5247 96.0251C55.5247 108.597 65.3645 117.692 77.1777 117.692M165.06 129.174H152.832V101.6C152.832 95.2522 149.134 91.8435 143.448 91.8435C137.1 91.8435 133.028 95.7214 133.028 103.588V129.174H120.801V61.7307H133.028V87.0961C135.968 82.6385 140.702 80.4581 147.146 80.4581C152.363 80.4581 156.627 82.1693 159.94 85.6747C163.348 89.18 165.06 93.9136 165.06 100.082V129.174Z" fill="#231815"/>
</svg>
