<svg width="10" height="10" viewBox="0 0 10 10" fill="none" xmlns="http://www.w3.org/2000/svg">
<path d="M8.75 4.16602C8.75 7.08268 5 9.58268 5 9.58268C5 9.58268 1.25 7.08268 1.25 4.16602C1.25 3.17145 1.64509 2.21763 2.34835 1.51436C3.05161 0.811104 4.00544 0.416016 5 0.416016C5.99456 0.416016 6.94839 0.811104 7.65165 1.51436C8.35491 2.21763 8.75 3.17145 8.75 4.16602Z" stroke="white" stroke-width="0.5" stroke-linecap="round" stroke-linejoin="round"/>
<path d="M5 5.41602C5.69036 5.41602 6.25 4.85637 6.25 4.16602C6.25 3.47566 5.69036 2.91602 5 2.91602C4.30964 2.91602 3.75 3.47566 3.75 4.16602C3.75 4.85637 4.30964 5.41602 5 5.41602Z" stroke="white" stroke-width="0.5" stroke-linecap="round" stroke-linejoin="round"/>
</svg>
