<svg width="800" height="400" viewBox="0 0 800 400" fill="none" xmlns="http://www.w3.org/2000/svg">
<g clip-path="url(#clip0_2838_578)">
<rect width="800" height="400" fill="white"/>
<path d="M307.297 134.73C307.297 143.856 307.728 150.141 308.589 153.585C310.053 159.268 313.066 162.109 317.629 162.109C321.676 162.109 324.431 159.612 325.895 154.618C327.014 150.744 327.574 144.114 327.574 134.73C327.574 124.57 326.842 117.467 325.378 113.42C324.001 109.287 321.375 107.221 317.5 107.221C313.195 107.221 310.311 109.933 308.847 115.357C307.814 119.232 307.297 125.689 307.297 134.73ZM288.312 134.73C288.312 126.12 290.982 118.715 296.32 112.516C301.744 106.317 308.804 103.217 317.5 103.217C325.938 103.217 332.869 106.231 338.293 112.258C343.803 118.199 346.559 125.689 346.559 134.73C346.559 143.512 343.846 150.959 338.422 157.072C333.084 163.099 326.11 166.113 317.5 166.113C308.718 166.113 301.658 163.099 296.32 157.072C290.982 150.959 288.312 143.512 288.312 134.73Z" fill="#2B2B2B"/>
<path d="M298.654 104.767V107.867C297.104 108.211 295.985 108.642 295.296 109.158C294.263 110.019 293.23 111.741 292.197 114.324L272.179 166.113H269.208L256.293 126.981H255.648L239.891 166.113H236.792L217.678 117.811C215.956 113.42 214.707 110.751 213.933 109.804C213.244 108.857 212.038 108.211 210.316 107.867V104.767H238.987V107.867C237.524 108.039 236.318 108.383 235.371 108.9C234.51 109.33 234.08 110.277 234.08 111.741C234.08 112.688 234.639 114.668 235.759 117.682C239.203 126.464 242.259 134.428 244.928 141.574L253.71 119.49L250.998 110.966C250.568 109.933 250.094 109.244 249.578 108.9C249.061 108.469 247.64 108.125 245.316 107.867V104.767H275.536V107.867C273.47 107.867 271.92 108.082 270.887 108.512C269.854 108.943 269.337 109.804 269.337 111.095C269.337 111.956 269.94 114.582 271.145 118.973C275.02 133.008 277 140.24 277.086 140.67C279.411 134.557 281.004 130.425 281.865 128.272C285.567 118.887 287.418 113.678 287.418 112.645C287.418 110.751 286.945 109.546 285.998 109.029C285.05 108.512 283.458 108.125 281.219 107.867V104.767H298.654Z" fill="#2B2B2B"/>
<path d="M211.25 161.076V164.304H165.144V161.076C170.223 161.076 173.495 160.473 174.959 159.268C176.767 157.804 177.671 154.446 177.671 149.194V81.1328C171.214 81.1328 166.263 82.1659 162.819 84.2323C157.222 87.5902 153.865 93.8324 152.745 102.959H149L149.387 77H226.877L227.135 102.959H223.39C222.27 93.9185 218.956 87.7193 213.445 84.3615C209.915 82.209 204.964 81.1328 198.593 81.1328V149.194C198.593 154.446 199.497 157.804 201.305 159.268C202.769 160.473 206.084 161.076 211.25 161.076Z" fill="#2B2B2B"/>
<path d="M617.452 193.105H634.758C634.758 189.747 634.671 186.992 634.499 184.839C634.413 182.601 634.112 180.534 633.595 178.64C633.079 176.746 632.39 175.325 631.529 174.378C630.323 173.087 628.688 172.441 626.621 172.441C623.78 172.441 621.671 173.646 620.293 176.057C618.399 179.329 617.452 185.012 617.452 193.105ZM648.189 213.381L651.289 215.189C647.414 221.13 643.497 225.306 639.536 227.717C635.662 230.128 631.055 231.333 625.717 231.333C618.571 231.333 612.587 228.836 607.766 223.842C602.255 218.074 599.5 210.023 599.5 199.691C599.5 190.393 602.04 182.859 607.12 177.09C612.2 171.322 618.528 168.438 626.105 168.438C633.681 168.438 639.536 170.891 643.669 175.799C648.318 181.309 650.643 188.671 650.643 197.883H618.097C618.097 204.513 619.131 209.894 621.197 214.027C623.866 219.365 627.999 222.034 633.595 222.034C636.178 222.034 638.546 221.431 640.698 220.226C642.937 218.935 645.434 216.653 648.189 213.381Z" fill="#2B2B2B"/>
<path d="M590.877 226.425V229.525H556.523V226.425C559.106 225.909 560.785 225.349 561.56 224.746C562.852 223.627 563.497 221.604 563.497 218.676V180.707C563.497 177.693 562.852 175.67 561.56 174.637C560.699 173.948 559.02 173.431 556.523 173.087V169.987H580.933V180.19C583.429 176.832 585.582 174.378 587.39 172.829C590.834 169.901 594.407 168.438 598.109 168.438C601.984 168.438 604.868 169.729 606.762 172.312C608.14 174.12 608.829 176.186 608.829 178.511C608.829 180.664 608.269 182.515 607.15 184.064C605.686 186.131 603.491 187.164 600.563 187.164C597.808 187.164 595.182 185.442 592.685 181.998C591.48 180.362 590.274 179.544 589.069 179.544C586.916 179.544 585.022 180.922 583.386 183.677C582.095 185.916 581.449 188.628 581.449 191.813V216.222C581.449 220.269 582.052 222.981 583.257 224.359C584.463 225.736 587.003 226.425 590.877 226.425Z" fill="#2B2B2B"/>
<path d="M528.198 193.105H545.504C545.504 189.747 545.418 186.992 545.245 184.839C545.159 182.601 544.858 180.534 544.341 178.64C543.825 176.746 543.136 175.325 542.275 174.378C541.07 173.087 539.434 172.441 537.367 172.441C534.526 172.441 532.417 173.646 531.039 176.057C529.145 179.329 528.198 185.012 528.198 193.105ZM558.935 213.381L562.035 215.189C558.16 221.13 554.243 225.306 550.282 227.717C546.408 230.128 541.801 231.333 536.463 231.333C529.317 231.333 523.333 228.836 518.512 223.842C513.001 218.074 510.246 210.023 510.246 199.691C510.246 190.393 512.786 182.859 517.866 177.09C522.946 171.322 529.274 168.438 536.851 168.438C544.427 168.438 550.282 170.891 554.415 175.799C559.064 181.309 561.389 188.671 561.389 197.883H528.843C528.843 204.513 529.877 209.894 531.943 214.027C534.612 219.365 538.745 222.034 544.341 222.034C546.924 222.034 549.292 221.431 551.444 220.226C553.683 218.935 556.18 216.653 558.935 213.381Z" fill="#2B2B2B"/>
<path d="M515.84 226.425V229.525H485.49V226.425C489.537 226.081 491.56 223.627 491.56 219.064V187.81C491.56 184.796 491.259 182.558 490.656 181.094C489.537 178.425 487.471 177.09 484.457 177.09C482.219 177.09 479.851 178.124 477.354 180.19C474.943 182.256 473.738 183.72 473.738 184.581V219.064C473.738 221.044 474.039 222.551 474.642 223.584C475.589 225.22 477.397 226.167 480.066 226.425V229.525H448.941V226.425C451.61 225.909 453.332 225.306 454.107 224.617C455.227 223.584 455.786 221.604 455.786 218.676V152.81C455.786 149.969 455.356 148.161 454.495 147.386C453.634 146.611 451.783 145.922 448.941 145.32V142.22H473.738V178.511C476.838 174.895 479.851 172.312 482.778 170.762C485.706 169.212 488.848 168.437 492.206 168.437C496.597 168.437 500.343 169.686 503.442 172.183C507.489 175.454 509.512 180.276 509.512 186.647V218.676C509.512 220.656 509.77 222.206 510.287 223.326C511.234 225.392 513.085 226.425 515.84 226.425Z" fill="#2B2B2B"/>
<path d="M414.375 184.839V216.222C415.15 217.944 415.882 219.236 416.571 220.097C418.723 222.766 421.306 224.101 424.32 224.101C428.883 224.101 432.026 221.13 433.748 215.189C434.781 211.573 435.297 206.752 435.297 200.725C435.297 193.148 434.824 187.638 433.877 184.194C432.327 178.597 429.443 175.799 425.224 175.799C422.641 175.799 420.101 177.047 417.604 179.544C415.452 181.697 414.375 183.462 414.375 184.839ZM424.449 253.288V256H389.191V252.901C392.119 252.47 394.056 251.781 395.003 250.834C395.95 249.887 396.424 248.079 396.424 245.41V180.707C396.424 178.124 395.993 176.316 395.132 175.282C394.271 174.163 392.377 173.431 389.45 173.087V169.987H414.117V178.511C415.839 175.584 417.604 173.388 419.412 171.925C422.426 169.6 426.214 168.438 430.777 168.438C436.976 168.438 442.271 170.762 446.663 175.412C451.828 180.922 454.411 188.542 454.411 198.271C454.411 208.517 452.001 216.567 447.179 222.422C442.444 228.276 436.589 231.204 429.615 231.204C427.118 231.204 424.793 230.73 422.641 229.783C420.575 228.922 417.819 226.813 414.375 223.455V241.665C414.375 246.4 415.279 249.586 417.088 251.222C418.551 252.599 421.005 253.288 424.449 253.288Z" fill="#2B2B2B"/>
<path d="M389.105 168.18H385.489C383.939 162.325 381.356 157.245 377.74 152.94C372.832 147.171 366.977 144.287 360.176 144.287C356.473 144.287 353.245 145.363 350.489 147.516C347.734 149.582 346.357 152.596 346.357 156.556C346.357 160 347.218 162.755 348.94 164.822C350.748 166.802 354.321 169.127 359.659 171.796L378.644 181.224C381.916 182.859 384.8 185.313 387.297 188.585C390.999 193.407 392.85 198.874 392.85 204.987C392.85 211.789 390.483 217.687 385.747 222.68C379.892 228.879 371.584 231.979 360.821 231.979C356.689 231.979 352.857 231.505 349.327 230.558C345.883 229.611 342.353 228.621 338.737 227.588C337.532 227.588 336.671 228.018 336.154 228.879C335.637 229.654 335.207 230.687 334.862 231.979H331.117V200.079H334.862C336.412 207.828 339.081 214.07 342.87 218.806C347.605 224.747 353.761 227.717 361.338 227.717C366.504 227.717 370.464 226.383 373.22 223.713C376.061 220.958 377.482 217.471 377.482 213.252C377.482 209.378 376.147 206.192 373.478 203.695C371.67 202.06 368.183 199.993 363.017 197.496L354.364 193.364C344.807 188.8 338.393 183.634 335.121 177.866C333.227 174.508 332.28 170.461 332.28 165.726C332.28 157.546 335.164 151.089 340.932 146.353C345.926 142.307 352.556 140.283 360.821 140.283C364.868 140.283 369.087 141.015 373.478 142.479C377.955 143.857 380.452 144.545 380.969 144.545C382.518 144.545 383.638 143.9 384.326 142.608C384.671 142.005 384.972 141.187 385.23 140.154H389.105V168.18Z" fill="#2B2B2B"/>
<path d="M485.895 316.477H482.507V301.312H485.895V316.477ZM488.657 309.875H484.956V307.136H488.657V309.875ZM480.071 302.901C480.071 304.843 479.688 306.579 478.922 308.111C478.164 309.643 477.046 310.95 475.569 312.033C474.091 313.108 472.273 313.944 470.115 314.539L468.723 311.905C470.44 311.441 471.875 310.842 473.027 310.107C474.188 309.372 475.05 308.536 475.615 307.6C476.187 306.657 476.474 305.651 476.474 304.584V302.901H480.071ZM478.353 305.616H469.674V302.901H478.353V305.616ZM486.534 322.29H471.89V319.61H486.534V322.29ZM475.278 320.84H471.89V314.922H475.278V320.84Z" fill="#2B2B2B"/>
<path d="M459.517 302.46C459.517 303.799 459.18 305.044 458.507 306.197C457.842 307.349 456.852 308.32 455.537 309.109C454.229 309.898 452.647 310.432 450.791 310.71L449.573 308.1C451.158 307.883 452.477 307.481 453.529 306.893C454.581 306.297 455.359 305.617 455.862 304.851C456.372 304.077 456.627 303.28 456.627 302.46V301.869H459.517V302.46ZM460.062 302.46C460.062 303.257 460.313 304.038 460.816 304.804C461.319 305.57 462.104 306.247 463.172 306.835C464.239 307.415 465.562 307.813 467.14 308.03L465.875 310.652C464.011 310.374 462.429 309.844 461.129 309.063C459.83 308.274 458.847 307.311 458.182 306.173C457.525 305.029 457.196 303.791 457.196 302.46V301.869H460.062V302.46ZM468.08 314.331H448.621V311.673H468.08V314.331ZM460.282 317.765H456.987V313.356H460.282V317.765ZM465.945 322.29H450.826V319.61H465.945V322.29ZM454.167 320.445H450.826V316.013H454.167V320.445Z" fill="#2B2B2B"/>
<path d="M440.194 317.232H436.841V301.359H440.194V317.232ZM442.956 310.444H439.254V307.717H442.956V310.444ZM435.82 306.069H423.207V303.47H435.82V306.069ZM429.531 306.684C430.552 306.684 431.465 306.862 432.269 307.218C433.074 307.566 433.696 308.057 434.137 308.692C434.586 309.326 434.81 310.053 434.81 310.873C434.81 311.678 434.586 312.389 434.137 313.008C433.696 313.627 433.074 314.111 432.269 314.459C431.465 314.799 430.552 314.969 429.531 314.969C428.494 314.969 427.57 314.799 426.758 314.459C425.953 314.111 425.323 313.627 424.866 313.008C424.418 312.389 424.193 311.678 424.193 310.873C424.193 310.053 424.418 309.326 424.866 308.692C425.323 308.057 425.953 307.566 426.758 307.218C427.57 306.862 428.494 306.684 429.531 306.684ZM429.531 309.249C429.121 309.249 428.757 309.307 428.44 309.423C428.123 309.539 427.879 309.721 427.709 309.968C427.547 310.216 427.465 310.517 427.465 310.873C427.465 311.206 427.547 311.492 427.709 311.732C427.879 311.972 428.123 312.153 428.44 312.277C428.757 312.393 429.121 312.451 429.531 312.451C429.956 312.451 430.324 312.393 430.633 312.277C430.95 312.153 431.198 311.972 431.376 311.732C431.554 311.492 431.643 311.206 431.643 310.873C431.643 310.517 431.554 310.216 431.376 309.968C431.198 309.721 430.95 309.539 430.633 309.423C430.324 309.307 429.956 309.249 429.531 309.249ZM431.202 304.735H427.848V301.324H431.202V304.735ZM440.89 322.291H426.224V319.61H440.89V322.291ZM429.577 320.759H426.224V316.025H429.577V320.759Z" fill="#2B2B2B"/>
<path d="M418.386 306.405H413.338V303.934H418.386V306.405ZM418.386 310.281H413.338V307.775H418.386V310.281ZM420.95 312.23H417.643V301.312H420.95V312.23ZM420.95 318.844H410.055V321.408H406.69V316.419H417.643V315.491H406.678V312.95H420.95V318.844ZM421.53 322.406H406.69V319.784H421.53V322.406ZM407.154 304.526H410.763V302.205H414.081V311.708H403.777V302.205H407.154V304.526ZM410.763 309.097V307.009H407.154V309.097H410.763Z" fill="#2B2B2B"/>
<path d="M402.056 314.946H382.586V312.335H402.056V314.946ZM399.689 322.615H396.324V318.752H384.791V316.129H399.689V322.615ZM400.026 311.209H384.976V308.692H400.026V311.209ZM399.84 304.352H388.318V310.038H384.976V301.788H399.84V304.352ZM399.353 307.705H387.366V305.257H399.353V307.705Z" fill="#2B2B2B"/>
<path d="M364.1 302.704C365.222 302.704 366.235 302.932 367.14 303.389C368.046 303.845 368.757 304.475 369.275 305.28C369.794 306.084 370.053 306.993 370.053 308.007C370.053 309.02 369.794 309.929 369.275 310.733C368.757 311.538 368.046 312.168 367.14 312.625C366.243 313.081 365.23 313.309 364.1 313.309C363.002 313.309 361.992 313.081 361.072 312.625C360.159 312.168 359.44 311.538 358.914 310.733C358.395 309.929 358.136 309.02 358.136 308.007C358.136 306.993 358.395 306.084 358.914 305.28C359.44 304.475 360.159 303.845 361.072 303.389C361.992 302.932 363.002 302.704 364.1 302.704ZM364.1 305.582C363.598 305.582 363.145 305.678 362.743 305.872C362.348 306.057 362.035 306.336 361.803 306.707C361.579 307.071 361.466 307.504 361.466 308.007C361.466 308.525 361.579 308.966 361.803 309.329C362.035 309.685 362.348 309.96 362.743 310.153C363.145 310.339 363.598 310.432 364.1 310.432C364.619 310.432 365.083 310.339 365.493 310.153C365.903 309.96 366.22 309.685 366.444 309.329C366.676 308.966 366.792 308.525 366.792 308.007C366.792 307.504 366.676 307.071 366.444 306.707C366.22 306.336 365.903 306.057 365.493 305.872C365.083 305.678 364.619 305.582 364.1 305.582ZM375.251 322.673H371.933V301.312H375.251V322.673ZM357.637 315.746C360.167 315.738 362.507 315.688 364.657 315.595C366.808 315.502 368.854 315.328 370.795 315.073L371.039 317.463C369.608 317.742 368.115 317.954 366.56 318.101C365.013 318.241 363.555 318.33 362.186 318.368C360.824 318.407 359.324 318.426 357.684 318.426L357.312 315.746H357.637Z" fill="#2B2B2B"/>
<path d="M352.421 309.55H347.083V306.882H352.421V309.55ZM354.962 317.034H351.643V301.358H354.962V317.034ZM355.403 322.291H340.655V319.61H355.403V322.291ZM344.043 321.177H340.655V315.468H344.043V321.177ZM341.154 305.837H344.763V302.739H348.081V313.762H337.777V302.739H341.154V305.837ZM344.763 311.152V308.355H341.154V311.152H344.763Z" fill="#2B2B2B"/>
<path d="M328.75 311.395H313.921V308.796H328.75V311.395ZM330.978 315.967H311.52V313.333H330.978V315.967ZM322.833 322.592H319.526V314.864H322.833V322.592ZM328.576 305.071H317.356V310.038H313.921V302.426H328.576V305.071Z" fill="#2B2B2B"/>
<path d="M493.843 281.32H478.875V278.709H493.843V281.32ZM495.978 285.996H476.52V283.385H495.978V285.996ZM482.205 280.02H478.875V273.859H482.205V280.02ZM493.982 293.956H478.655V291.275H493.982V293.956ZM482.019 292.03H478.655V287.597H482.019V292.03Z" fill="#2B2B2B"/>
<path d="M475.993 283.756H472.257V281.041H475.993V283.756ZM473.127 294.362H469.774V273.093H473.127V294.362ZM460.178 288.363H456.848V275.123H460.178V288.363ZM458.739 286.483C460.356 286.483 461.98 286.409 463.612 286.262C465.252 286.116 466.892 285.883 468.532 285.566L468.88 288.328C467.248 288.653 465.593 288.885 463.914 289.024C462.235 289.156 460.51 289.221 458.739 289.221H456.848V286.483H458.739Z" fill="#2B2B2B"/>
<path d="M446.827 285.183H436.477V274.822H446.827V285.183ZM439.783 282.572H443.52V277.479H439.783V282.572ZM452.895 288.629H449.542V273.127H452.895V288.629ZM455.657 281.876H451.955V279.138H455.657V281.876ZM453.591 294.071H438.925V291.391H453.591V294.071ZM442.278 292.772H438.925V287.063H442.278V292.772Z" fill="#2B2B2B"/>
<path d="M427.426 294.362H424.073V273.093H427.426V294.362ZM430.292 283.849H426.556V281.111H430.292V283.849ZM421.683 275.251C421.683 277.517 421.373 279.598 420.754 281.494C420.143 283.381 419.126 285.114 417.703 286.692C416.287 288.27 414.411 289.635 412.075 290.788L410.195 288.247C412.083 287.287 413.626 286.22 414.825 285.044C416.032 283.861 416.929 282.518 417.517 281.018C418.113 279.517 418.41 277.8 418.41 275.866V275.251H421.683ZM420.093 277.978H411.448V275.251H420.093V277.978Z" fill="#2B2B2B"/>
<path d="M407.624 285.137H392.47V282.492H407.624V285.137ZM409.701 292.076H390.242V289.349H409.701V292.076ZM401.579 290.185H398.283V283.698H401.579V290.185ZM407.485 277.189H395.812V283.675H392.47V274.543H407.485V277.189Z" fill="#2B2B2B"/>
<path d="M388.844 294.396H385.699V273.093H388.844V294.396ZM384.446 293.456H381.325V273.418H384.446V293.456ZM382.439 288.711H378.227V286.158H382.439V288.711ZM378.494 277.885H370.719V275.274H378.494V277.885ZM376.776 292.714H373.586V283.884H376.776V292.714ZM379.468 276.295C379.468 277.394 379.43 278.473 379.352 279.533C379.275 280.585 379.085 281.799 378.784 283.176L375.616 282.863C375.902 281.571 376.084 280.449 376.161 279.498C376.239 278.546 376.285 277.548 376.301 276.504V276.295V275.274H379.468V276.295ZM369.617 282.387C371.628 282.387 373.566 282.352 375.43 282.283C377.302 282.205 378.973 282.066 380.443 281.865L380.687 284.244C379.178 284.507 377.48 284.7 375.593 284.824C373.705 284.94 371.88 284.998 370.116 284.998H369.93L369.617 282.387Z" fill="#2B2B2B"/>
<path d="M351.401 274.485C352.523 274.485 353.536 274.713 354.441 275.17C355.346 275.626 356.058 276.257 356.576 277.061C357.095 277.866 357.354 278.775 357.354 279.788C357.354 280.801 357.095 281.71 356.576 282.515C356.058 283.319 355.346 283.95 354.441 284.406C353.544 284.862 352.531 285.091 351.401 285.091C350.303 285.091 349.293 284.862 348.373 284.406C347.46 283.95 346.741 283.319 346.215 282.515C345.696 281.71 345.437 280.801 345.437 279.788C345.437 278.775 345.696 277.866 346.215 277.061C346.741 276.257 347.46 275.626 348.373 275.17C349.293 274.713 350.303 274.485 351.401 274.485ZM351.401 277.363C350.898 277.363 350.446 277.459 350.044 277.653C349.649 277.839 349.336 278.117 349.104 278.488C348.879 278.852 348.767 279.285 348.767 279.788C348.767 280.306 348.879 280.747 349.104 281.111C349.336 281.466 349.649 281.741 350.044 281.934C350.446 282.12 350.898 282.213 351.401 282.213C351.919 282.213 352.384 282.12 352.794 281.934C353.204 281.741 353.521 281.466 353.745 281.111C353.977 280.747 354.093 280.306 354.093 279.788C354.093 279.285 353.977 278.852 353.745 278.488C353.521 278.117 353.204 277.839 352.794 277.653C352.384 277.459 351.919 277.363 351.401 277.363ZM362.552 294.454H359.233V273.093H362.552V294.454ZM344.938 287.527C347.468 287.519 349.808 287.469 351.958 287.376C354.109 287.284 356.155 287.11 358.096 286.854L358.34 289.245C356.909 289.523 355.416 289.736 353.861 289.883C352.314 290.022 350.856 290.111 349.487 290.15C348.125 290.188 346.625 290.208 344.985 290.208L344.613 287.527H344.938Z" fill="#2B2B2B"/>
<path d="M343.84 278.72H340.162V276.017H343.84V278.72ZM343.84 283.35H340.162V280.647H343.84V283.35ZM341.194 286.553H337.841V273.093H341.194V286.553ZM334.174 286.761C335.636 286.761 336.913 286.916 338.003 287.226C339.102 287.535 339.945 287.98 340.533 288.56C341.128 289.132 341.426 289.813 341.426 290.602C341.426 291.383 341.125 292.064 340.521 292.644C339.926 293.224 339.082 293.665 337.992 293.967C336.909 294.269 335.636 294.42 334.174 294.42C332.681 294.42 331.386 294.269 330.287 293.967C329.196 293.665 328.357 293.224 327.769 292.644C327.181 292.064 326.887 291.383 326.887 290.602C326.887 289.813 327.181 289.129 327.769 288.548C328.357 287.96 329.196 287.516 330.287 287.214C331.386 286.912 332.681 286.761 334.174 286.761ZM334.174 289.314C333.269 289.314 332.527 289.357 331.946 289.442C331.366 289.527 330.929 289.666 330.635 289.86C330.341 290.045 330.194 290.293 330.194 290.602C330.194 290.896 330.341 291.144 330.635 291.345C330.929 291.546 331.37 291.697 331.958 291.797C332.554 291.898 333.292 291.948 334.174 291.948C335.025 291.948 335.741 291.898 336.321 291.797C336.901 291.697 337.334 291.546 337.62 291.345C337.914 291.144 338.061 290.896 338.061 290.602C338.061 290.293 337.918 290.045 337.632 289.86C337.354 289.666 336.928 289.527 336.356 289.442C335.783 289.357 335.056 289.314 334.174 289.314ZM336.82 277.618H324.207V275.031H336.82V277.618ZM330.531 278.21C331.552 278.21 332.465 278.372 333.269 278.697C334.074 279.022 334.696 279.478 335.137 280.066C335.586 280.654 335.81 281.323 335.81 282.074C335.81 282.824 335.586 283.489 335.137 284.07C334.696 284.642 334.074 285.091 333.269 285.415C332.465 285.733 331.552 285.895 330.531 285.903C329.494 285.895 328.57 285.733 327.758 285.415C326.953 285.091 326.323 284.642 325.866 284.07C325.418 283.489 325.193 282.824 325.193 282.074C325.193 281.323 325.418 280.654 325.866 280.066C326.323 279.478 326.953 279.022 327.758 278.697C328.57 278.372 329.494 278.21 330.531 278.21ZM330.531 280.635C330.121 280.635 329.757 280.689 329.44 280.797C329.123 280.898 328.879 281.057 328.709 281.273C328.547 281.482 328.465 281.749 328.465 282.074C328.465 282.36 328.547 282.611 328.709 282.828C328.879 283.037 329.123 283.192 329.44 283.292C329.757 283.393 330.121 283.443 330.531 283.443C330.956 283.443 331.324 283.393 331.633 283.292C331.95 283.192 332.198 283.037 332.376 282.828C332.554 282.611 332.643 282.36 332.643 282.074C332.643 281.749 332.554 281.482 332.376 281.273C332.198 281.057 331.95 280.898 331.633 280.797C331.324 280.689 330.956 280.635 330.531 280.635ZM332.202 276.423H328.848V273H332.202V276.423Z" fill="#2B2B2B"/>
<path d="M311.995 277.502C311.995 278.569 311.782 279.548 311.356 280.438C310.931 281.327 310.27 282.089 309.372 282.723C308.475 283.358 307.349 283.803 305.996 284.058L304.627 281.482C305.71 281.289 306.599 280.991 307.295 280.588C307.999 280.186 308.51 279.722 308.827 279.196C309.152 278.662 309.314 278.098 309.314 277.502V277.235H311.995V277.502ZM312.679 277.502C312.679 278.067 312.838 278.593 313.155 279.08C313.48 279.567 313.987 279.997 314.675 280.368C315.363 280.739 316.234 281.018 317.286 281.203L315.986 283.745C314.64 283.505 313.519 283.087 312.621 282.491C311.732 281.896 311.074 281.172 310.649 280.322C310.223 279.471 310.01 278.531 310.01 277.502V277.235H312.679V277.502ZM316.74 277.711H305.242V275.147H316.74V277.711ZM312.679 277.015H309.349V273.151H312.679V277.015ZM312.656 293.735H309.314V285.172H312.656V293.735ZM321.985 294.385H318.667V273.139H321.985V294.385ZM304 284.789C306.669 284.789 309.098 284.754 311.287 284.684C313.476 284.607 315.541 284.445 317.483 284.197L317.703 286.599C315.661 286.955 313.557 287.191 311.391 287.307C309.233 287.415 306.909 287.469 304.418 287.469L304 284.789Z" fill="#2B2B2B"/>
</g>
<defs>
<clipPath id="clip0_2838_578">
<rect width="800" height="400" fill="white"/>
</clipPath>
</defs>
</svg>
