<svg width="83" height="83" viewBox="0 0 83 83" fill="none" xmlns="http://www.w3.org/2000/svg">
<path d="M41.4993 40.4993C38.7035 40.4993 36.3101 39.5039 34.3191 37.5129C32.3282 35.5219 31.3327 33.1285 31.3327 30.3327C31.3327 27.5368 32.3282 25.1434 34.3191 23.1525C36.3101 21.1615 38.7035 20.166 41.4993 20.166C44.2952 20.166 46.6886 21.1615 48.6796 23.1525C50.6705 25.1434 51.666 27.5368 51.666 30.3327C51.666 33.1285 50.6705 35.5219 48.6796 37.5129C46.6886 39.5039 44.2952 40.4993 41.4993 40.4993ZM21.166 60.8327V53.716C21.166 52.2757 21.5367 50.952 22.278 49.7447C23.0193 48.5374 24.0042 47.616 25.2327 46.9806C27.8591 45.6674 30.5278 44.6825 33.2389 44.0259C35.95 43.3693 38.7035 43.041 41.4993 43.041C44.2952 43.041 47.0487 43.3693 49.7598 44.0259C52.4709 44.6825 55.1396 45.6674 57.766 46.9806C58.9945 47.616 59.9794 48.5374 60.7207 49.7447C61.462 50.952 61.8327 52.2757 61.8327 53.716V60.8327H21.166ZM26.2493 55.7493H56.7493V53.716C56.7493 53.25 56.6329 52.8264 56.3999 52.4452C56.1669 52.0639 55.8598 51.7674 55.4785 51.5556C53.191 50.4118 50.8823 49.554 48.5525 48.9822C46.2226 48.4103 43.8716 48.1243 41.4993 48.1243C39.1271 48.1243 36.7761 48.4103 34.4462 48.9822C32.1164 49.554 29.8077 50.4118 27.5202 51.5556C27.1389 51.7674 26.8318 52.0639 26.5988 52.4452C26.3658 52.8264 26.2493 53.25 26.2493 53.716V55.7493ZM41.4993 35.416C42.8973 35.416 44.094 34.9183 45.0895 33.9228C46.0849 32.9273 46.5827 31.7306 46.5827 30.3327C46.5827 28.9348 46.0849 27.7381 45.0895 26.7426C44.094 25.7471 42.8973 25.2493 41.4993 25.2493C40.1014 25.2493 38.9047 25.7471 37.9092 26.7426C36.9138 27.7381 36.416 28.9348 36.416 30.3327C36.416 31.7306 36.9138 32.9273 37.9092 33.9228C38.9047 34.9183 40.1014 35.416 41.4993 35.416Z" fill="white"/>
<circle cx="41.5" cy="41.5" r="38.5" stroke="white" stroke-width="6"/>
</svg>
