<svg width="778" height="278" viewBox="0 0 778 278" fill="none" xmlns="http://www.w3.org/2000/svg">
<path d="M245.138 89.4001C245.138 103.533 245.805 113.267 247.138 118.6C249.405 127.4 254.072 131.8 261.138 131.8C267.405 131.8 271.672 127.933 273.938 120.2C275.672 114.2 276.538 103.933 276.538 89.4001C276.538 73.6668 275.405 62.6668 273.138 56.4001C271.005 50.0001 266.938 46.8001 260.938 46.8001C254.272 46.8001 249.805 51.0001 247.538 59.4001C245.938 65.4001 245.138 75.4001 245.138 89.4001ZM215.738 89.4001C215.738 76.0668 219.872 64.6001 228.138 55.0001C236.538 45.4001 247.472 40.6001 260.938 40.6001C274.005 40.6001 284.738 45.2668 293.138 54.6001C301.672 63.8001 305.938 75.4001 305.938 89.4001C305.938 103 301.738 114.533 293.338 124C285.072 133.333 274.272 138 260.938 138C247.338 138 236.405 133.333 228.138 124C219.872 114.533 215.738 103 215.738 89.4001Z" fill="white"/>
<path d="M231.753 43V47.8C229.353 48.3333 227.62 49 226.553 49.8C224.953 51.1333 223.353 53.8 221.753 57.8L190.753 138H186.153L166.153 77.4H165.153L140.753 138H135.953L106.353 63.2C103.686 56.4 101.753 52.2667 100.553 50.8C99.4865 49.3333 97.6198 48.3333 94.9531 47.8V43H139.353V47.8C137.086 48.0667 135.22 48.6 133.753 49.4C132.42 50.0667 131.753 51.5333 131.753 53.8C131.753 55.2667 132.62 58.3333 134.353 63C139.686 76.6 144.42 88.9333 148.553 100L162.153 65.8L157.953 52.6C157.286 51 156.553 49.9333 155.753 49.4C154.953 48.7333 152.753 48.2 149.153 47.8V43H195.953V47.8C192.753 47.8 190.353 48.1333 188.753 48.8C187.153 49.4667 186.353 50.8 186.353 52.8C186.353 54.1333 187.286 58.2 189.153 65C195.153 86.7333 198.22 97.9333 198.353 98.6C201.953 89.1333 204.42 82.7333 205.753 79.4C211.486 64.8667 214.353 56.8 214.353 55.2C214.353 52.2667 213.62 50.4 212.153 49.6C210.686 48.8 208.22 48.2 204.753 47.8V43H231.753Z" fill="white"/>
<path d="M96.4 130.2V135.2H25V130.2C32.8667 130.2 37.9333 129.267 40.2 127.4C43 125.133 44.4 119.933 44.4 111.8V6.4C34.4 6.4 26.7333 8.00001 21.4 11.2C12.7333 16.4 7.53333 26.0667 5.8 40.2H0L0.6 0H120.6L121 40.2H115.2C113.467 26.2 108.333 16.6 99.8 11.4C94.3333 8.06667 86.6667 6.4 76.8 6.4V111.8C76.8 119.933 78.2 125.133 81 127.4C83.2667 129.267 88.4 130.2 96.4 130.2Z" fill="white"/>
<path d="M725.445 179.8H752.245C752.245 174.6 752.111 170.333 751.845 167C751.711 163.533 751.245 160.333 750.445 157.4C749.645 154.467 748.578 152.267 747.245 150.8C745.378 148.8 742.845 147.8 739.645 147.8C735.245 147.8 731.978 149.667 729.845 153.4C726.911 158.467 725.445 167.267 725.445 179.8ZM773.045 211.2L777.845 214C771.845 223.2 765.778 229.667 759.645 233.4C753.645 237.133 746.511 239 738.245 239C727.178 239 717.911 235.133 710.445 227.4C701.911 218.467 697.645 206 697.645 190C697.645 175.6 701.578 163.933 709.445 155C717.311 146.067 727.111 141.6 738.845 141.6C750.578 141.6 759.645 145.4 766.045 153C773.245 161.533 776.845 172.933 776.845 187.2H726.445C726.445 197.467 728.045 205.8 731.245 212.2C735.378 220.467 741.778 224.6 750.445 224.6C754.445 224.6 758.111 223.667 761.445 221.8C764.911 219.8 768.778 216.267 773.045 211.2Z" fill="white"/>
<path d="M684.294 231.4V236.2H631.094V231.4C635.094 230.6 637.694 229.733 638.894 228.8C640.894 227.067 641.894 223.933 641.894 219.4V160.6C641.894 155.933 640.894 152.8 638.894 151.2C637.56 150.133 634.96 149.333 631.094 148.8V144H668.894V159.8C672.76 154.6 676.094 150.8 678.894 148.4C684.227 143.867 689.76 141.6 695.494 141.6C701.494 141.6 705.96 143.6 708.894 147.6C711.027 150.4 712.094 153.6 712.094 157.2C712.094 160.533 711.227 163.4 709.494 165.8C707.227 169 703.827 170.6 699.294 170.6C695.027 170.6 690.96 167.933 687.094 162.6C685.227 160.067 683.36 158.8 681.494 158.8C678.16 158.8 675.227 160.933 672.694 165.2C670.694 168.667 669.694 172.867 669.694 177.8V215.6C669.694 221.867 670.627 226.067 672.494 228.2C674.36 230.333 678.294 231.4 684.294 231.4Z" fill="white"/>
<path d="M587.226 179.8H614.026C614.026 174.6 613.892 170.333 613.626 167C613.492 163.533 613.026 160.333 612.226 157.4C611.426 154.467 610.359 152.267 609.026 150.8C607.159 148.8 604.626 147.8 601.426 147.8C597.026 147.8 593.759 149.667 591.626 153.4C588.692 158.467 587.226 167.267 587.226 179.8ZM634.826 211.2L639.626 214C633.626 223.2 627.559 229.667 621.426 233.4C615.426 237.133 608.292 239 600.026 239C588.959 239 579.692 235.133 572.226 227.4C563.692 218.467 559.426 206 559.426 190C559.426 175.6 563.359 163.933 571.226 155C579.092 146.067 588.892 141.6 600.626 141.6C612.359 141.6 621.426 145.4 627.826 153C635.026 161.533 638.626 172.933 638.626 187.2H588.226C588.226 197.467 589.826 205.8 593.026 212.2C597.159 220.467 603.559 224.6 612.226 224.6C616.226 224.6 619.892 223.667 623.226 221.8C626.692 219.8 630.559 216.267 634.826 211.2Z" fill="white"/>
<path d="M568.092 231.4V236.2H521.092V231.4C527.359 230.867 530.492 227.067 530.492 220V171.6C530.492 166.933 530.026 163.467 529.092 161.2C527.359 157.067 524.159 155 519.492 155C516.026 155 512.359 156.6 508.492 159.8C504.759 163 502.892 165.267 502.892 166.6V220C502.892 223.067 503.359 225.4 504.292 227C505.759 229.533 508.559 231 512.692 231.4V236.2H464.492V231.4C468.626 230.6 471.292 229.667 472.492 228.6C474.226 227 475.092 223.933 475.092 219.4V117.4C475.092 113 474.426 110.2 473.092 109C471.759 107.8 468.892 106.733 464.492 105.8V101H502.892V157.2C507.692 151.6 512.359 147.6 516.892 145.2C521.426 142.8 526.292 141.6 531.492 141.6C538.292 141.6 544.092 143.533 548.892 147.4C555.159 152.467 558.292 159.933 558.292 169.8V219.4C558.292 222.467 558.692 224.867 559.492 226.6C560.959 229.8 563.826 231.4 568.092 231.4Z" fill="white"/>
<path d="M410.961 167V215.6C412.161 218.267 413.294 220.267 414.361 221.6C417.694 225.733 421.694 227.8 426.361 227.8C433.428 227.8 438.294 223.2 440.961 214C442.561 208.4 443.361 200.933 443.361 191.6C443.361 179.867 442.628 171.333 441.161 166C438.761 157.333 434.294 153 427.761 153C423.761 153 419.828 154.933 415.961 158.8C412.628 162.133 410.961 164.867 410.961 167ZM426.561 273V277.2H371.961V272.4C376.494 271.733 379.494 270.667 380.961 269.2C382.428 267.733 383.161 264.933 383.161 260.8V160.6C383.161 156.6 382.494 153.8 381.161 152.2C379.828 150.467 376.894 149.333 372.361 148.8V144H410.561V157.2C413.228 152.667 415.961 149.267 418.761 147C423.428 143.4 429.294 141.6 436.361 141.6C445.961 141.6 454.161 145.2 460.961 152.4C468.961 160.933 472.961 172.733 472.961 187.8C472.961 203.667 469.228 216.133 461.761 225.2C454.428 234.267 445.361 238.8 434.561 238.8C430.694 238.8 427.094 238.067 423.761 236.6C420.561 235.267 416.294 232 410.961 226.8V255C410.961 262.333 412.361 267.267 415.161 269.8C417.428 271.933 421.228 273 426.561 273Z" fill="white"/>
<path d="M371.827 141.2H366.227C363.827 132.133 359.827 124.267 354.227 117.6C346.627 108.667 337.561 104.2 327.027 104.2C321.294 104.2 316.294 105.867 312.027 109.2C307.761 112.4 305.627 117.067 305.627 123.2C305.627 128.533 306.961 132.8 309.627 136C312.427 139.067 317.961 142.667 326.227 146.8L355.627 161.4C360.694 163.933 365.161 167.733 369.027 172.8C374.761 180.267 377.627 188.733 377.627 198.2C377.627 208.733 373.961 217.867 366.627 225.6C357.561 235.2 344.694 240 328.027 240C321.627 240 315.694 239.267 310.227 237.8C304.894 236.333 299.427 234.8 293.827 233.2C291.961 233.2 290.627 233.867 289.827 235.2C289.027 236.4 288.361 238 287.827 240H282.027V190.6H287.827C290.227 202.6 294.361 212.267 300.227 219.6C307.561 228.8 317.094 233.4 328.827 233.4C336.827 233.4 342.961 231.333 347.227 227.2C351.627 222.933 353.827 217.533 353.827 211C353.827 205 351.761 200.067 347.627 196.2C344.827 193.667 339.427 190.467 331.427 186.6L318.027 180.2C303.227 173.133 293.294 165.133 288.227 156.2C285.294 151 283.827 144.733 283.827 137.4C283.827 124.733 288.294 114.733 297.227 107.4C304.961 101.133 315.227 98 328.027 98C334.294 98 340.827 99.1334 347.627 101.4C354.561 103.533 358.427 104.6 359.227 104.6C361.627 104.6 363.361 103.6 364.427 101.6C364.961 100.667 365.427 99.4001 365.827 97.8H371.827V141.2Z" fill="white"/>
</svg>
